:FULLY-SPECIFIED
:FORCE-ALL-JOINTS-BE-3DOF
:DEGREES
1325
root -1.70074 14.5438 8.08709 -7.85737 30.9566 3.1041
lfemur 3.85804 0.463657 -15.082
ltibia 55.9904 -0 0
lfoot -31.0222 29.9196 0.0207676
ltoes -17.5367 0 0
rfemur -37.0953 -4.05751 -4.17663
rtibia 30.416 -0 0
rfoot 32.944 1.52907 -0.106719
rtoes 5.54911 -0 0
lowerback 12.4179 0.3904 -12.5378
upperback -1.38947 -1.40225 -0.0968579
thorax -8.25808 -0.0978397 7.25672
lowerneck -1.02274 -10.7183 -11.4163
upperneck 10.8942 -15.0503 9.91376
head 5.05236 -7.43852 3.99452
lclavicle 1.80397e-014 2.78299e-015 0
lhumerus -73.1217 -18.8486 106.497
lradius 98.8033 -0 0
lwrist 63.434 0 0
lhand -13.1528 29.5309 0.045175
lfingers 7.12502 -0 0
lthumb 12.9462 59.1198 0.0446114
rclavicle 1.80397e-014 2.78299e-015 0
rhumerus 64.6625 -1.71307 -33.0166
rradius 77.7251 -0 0
rwrist 29.0887 0 0
rhand -40.0747 -39.6085 0.0766121
rfingers 7.12502 -0 0
rthumb -13.0404 -69.2135 0.0736145
1326
root -1.71946 14.5208 8.24612 -7.65343 31.3039 3.15756
lfemur 4.54075 0.259014 -14.7638
ltibia 55.5294 -0 0
lfoot -30.9985 30.2829 0.0407239
ltoes -17.4359 0 0
rfemur -37.2996 -4.39989 -4.2355
rtibia 30.6585 -0 0
rfoot 32.5025 1.85124 -0.205401
rtoes 5.1938 -0 0
lowerback 12.3796 0.412074 -12.5761
upperback -1.41567 -1.37755 -0.119149
thorax -8.27128 -0.0824663 7.24855
lowerneck -0.860152 -10.8353 -11.4976
upperneck 10.7284 -15.2205 9.99961
head 5.00458 -7.52672 4.02861
lclavicle 1.80397e-014 2.78299e-015 0
lhumerus -74.7603 -18.1338 106.131
lradius 99.0514 -0 0
lwrist 63.8343 0 0
lhand -12.9717 29.6075 0.0776949
lfingers 7.12502 -0 0
lthumb 13.121 59.1938 0.0768127
rclavicle 1.80397e-014 2.78299e-015 0
rhumerus 65.5273 -3.08203 -32.2991
rradius 77.7656 -0 0
rwrist 30.8461 0 0
rhand -40.6648 -39.056 0.141234
rfingers 7.12502 -0 0
rthumb -13.6098 -68.6512 0.135712
1327
root -1.73817 14.4978 8.40515 -7.40154 31.6022 3.21183
lfemur 5.13834 0.0936263 -14.4503
ltibia 55.0771 -0 0
lfoot -30.9231 30.6559 0.0593943
ltoes -17.2266 0 0
rfemur -37.6372 -4.85237 -4.1709
rtibia 31.2306 -0 0
rfoot 31.7404 2.1642 -0.293753
rtoes 4.73321 -0 0
lowerback 12.3445 0.441451 -12.6023
upperback -1.45091 -1.34175 -0.139971
thorax -8.29891 -0.0609441 7.23301
lowerneck -0.703885 -10.9447 -11.5758
upperneck 10.5468 -15.3785 10.0861
head 4.95221 -7.60891 4.06384
lclavicle 1.80397e-014 2.78299e-015 0
lhumerus -76.0514 -17.5705 105.807
lradius 99.2828 -0 0
lwrist 64.1327 0 0
lhand -12.8639 29.8133 0.098183
lfingers 7.12502 -0 0
lthumb 13.2251 59.3995 0.0972042
rclavicle 1.80397e-014 2.78299e-015 0
rhumerus 66.1744 -4.30111 -31.6853
rradius 77.8227 -0 0
rwrist 32.2694 0 0
rhand -41.1771 -38.5233 0.193842
rfingers 7.12502 -0 0
rthumb -14.104 -68.1072 0.186279
1328
root -1.75688 14.4748 8.56418 -7.10615 31.8546 3.26717
lfemur 5.65894 -0.0354563 -14.1417
ltibia 54.6306 -0 0
lfoot -30.8001 31.0361 0.0763349
ltoes -16.9219 0 0
rfemur -38.0972 -5.40237 -3.99178
rtibia 32.1002 -0 0
rfoot 30.6897 2.46864 -0.37
rtoes 4.17967 -0 0
lowerback 12.3123 0.477832 -12.6172
upperback -1.49429 -1.29579 -0.159477
thorax -8.33951 -0.033845 7.21053
lowerneck -0.55389 -11.0468 -11.6508
upperneck 10.3514 -15.5248 10.1728
head 4.8958 -7.68536 4.09995
lclavicle 1.80397e-014 2.78299e-015 0
lhumerus -77.0248 -17.1427 105.531
lradius 99.4983 -0 0
lwrist 64.3372 0 0
lhand -12.8221 30.1364 0.107785
lfingers 7.12502 -0 0
lthumb 13.2656 59.7246 0.106901
rclavicle 1.80397e-014 2.78299e-015 0
rhumerus 66.626 -5.37693 -31.1598
rradius 77.8949 -0 0
rwrist 33.3852 0 0
rhand -41.6174 -38.0102 0.234609
rfingers 7.12502 -0 0
rthumb -14.5287 -67.5813 0.225484
1329
root -1.77559 14.4518 8.72321 -6.77177 32.0643 3.3237
lfemur 6.11068 -0.131281 -13.838
ltibia 54.1871 -0 0
lfoot -30.6337 31.4212 0.0911455
ltoes -16.535 0 0
rfemur -38.669 -6.03678 -3.70678
rtibia 33.2355 -0 0
rfoot 29.3824 2.76501 -0.432837
rtoes 3.54554 -0 0
lowerback 12.2826 0.520517 -12.6215
upperback -1.5449 -1.24061 -0.177819
thorax -8.39161 -0.00174434 7.18154
lowerneck -0.410119 -11.1419 -11.7225
upperneck 10.144 -15.66 10.2593
head 4.83589 -7.75635 4.13666
lclavicle 1.80397e-014 2.78299e-015 0
lhumerus -77.7097 -16.8352 105.304
lradius 99.6988 -0 0
lwrist 64.4562 0 0
lhand -12.839 30.5647 0.108019
lfingers 7.12502 -0 0
lthumb 13.2494 60.157 0.107386
rclavicle 1.80397e-014 2.78299e-015 0
rhumerus 66.9029 -6.31759 -30.7102
rradius 77.9808 -0 0
rwrist 34.2201 0 0
rhand -41.9917 -37.5161 0.263892
rfingers 7.12502 -0 0
rthumb -14.8895 -67.0732 0.253668
1330
root -1.79431 14.4288 8.88224 -6.40297 32.2344 3.38144
lfemur 6.5016 -0.196989 -13.5396
ltibia 53.7437 -0 0
lfoot -30.4278 31.8085 0.103482
ltoes -16.0792 0 0
rfemur -39.3423 -6.74216 -3.32444
rtibia 34.6046 -0 0
rfoot 27.8506 3.05349 -0.4814
rtoes 2.84315 -0 0
lowerback 12.255 0.568802 -12.6159
upperback -1.6018 -1.17716 -0.195149
thorax -8.45376 0.0347809 7.14645
lowerneck -0.27252 -11.2304 -11.7907
upperneck 9.92677 -15.7847 10.3452
head 4.77302 -7.82217 4.1737
lclavicle 1.80397e-014 2.78299e-015 0
lhumerus -78.1349 -16.6338 105.125
lradius 99.885 -0 0
lwrist 64.4976 0 0
lhand -12.9075 31.0864 0.100637
lfingers 7.12502 -0 0
lthumb 13.1834 60.6844 0.100373
rclavicle 1.80397e-014 2.78299e-015 0
rhumerus 67.0251 -7.13234 -30.3256
rradius 78.0788 -0 0
rwrist 34.8006 0 0
rhand -42.3056 -37.0408 0.28222
rfingers 7.12502 -0 0
rthumb -15.1921 -66.5828 0.271332
1331
root -1.81302 14.4058 9.04127 -6.00434 32.368 3.44036
lfemur 6.83972 -0.235808 -13.2472
ltibia 53.2976 -0 0
lfoot -30.1867 32.1957 0.113067
ltoes -15.5677 0 0
rfemur -40.1069 -7.50493 -2.85343
rtibia 36.1754 -0 0
rfoot 26.1262 3.33409 -0.515244
rtoes 2.08485 -0 0
lowerback 12.2293 0.621982 -12.6011
upperback -1.66409 -1.10638 -0.211622
thorax -8.5245 0.0751528 7.1057
lowerneck -0.141037 -11.3128 -11.8552
upperneck 9.70152 -15.8994 10.43
head 4.70773 -7.88309 4.21078
lclavicle 1.80397e-014 2.78299e-015 0
lhumerus -78.3289 -16.5254 104.991
lradius 100.058 -0 0
lwrist 64.4698 0 0
lhand -13.0204 31.6895 0.0875102
lfingers 7.12502 -0 0
lthumb 13.0746 61.2946 0.0876915
rclavicle 1.80397e-014 2.78299e-015 0
rhumerus 67.0115 -7.83128 -29.997
rradius 78.1874 -0 0
rwrist 35.1534 0 0
rhand -42.565 -36.5839 0.29028
rfingers 7.12502 -0 0
rthumb -15.442 -66.11 0.279127
1332
root -1.83173 14.3828 9.2003 -5.5805 32.4682 3.50035
lfemur 7.13302 -0.251057 -12.9614
ltibia 52.8458 -0 0
lfoot -29.9144 32.5803 0.119698
ltoes -15.0136 0 0
rfemur -40.9523 -8.3115 -2.30269
rtibia 37.9162 -0 0
rfoot 24.2414 3.60665 -0.534323
rtoes 1.28299 -0 0
lowerback 12.2051 0.67935 -12.5777
upperback -1.73085 -1.02921 -0.227387
thorax -8.60237 0.118794 7.05971
lowerneck -0.0156156 -11.3893 -11.916
upperneck 9.47026 -16.0048 10.5132
head 4.64058 -7.93939 4.24763
lclavicle 1.80397e-014 2.78299e-015 0
lhumerus -78.3201 -16.4973 104.897
lradius 100.218 -0 0
lwrist 64.3809 0 0
lhand -13.1704 32.3621 0.0705186
lfingers 7.12502 -0 0
lthumb 12.9299 61.9754 0.071184
rclavicle 1.80397e-014 2.78299e-015 0
rhumerus 66.8807 -8.42519 -29.7169
rradius 78.3052 -0 0
rwrist 35.305 0 0
rhand -42.7757 -36.1452 0.288907
rfingers 7.12502 -0 0
rthumb -15.6449 -65.6547 0.277849
1333
root -1.85045 14.3598 9.35933 -5.13608 32.5381 3.56131
lfemur 7.38944 -0.246137 -12.683
ltibia 52.3857 -0 0
lfoot -29.615 32.9599 0.123252
ltoes -14.4304 0 0
rfemur -41.868 -9.14851 -1.68162
rtibia 39.7951 -0 0
rfoot 22.2282 3.87088 -0.538971
rtoes 0.449914 -0 0
lowerback 12.182 0.740198 -12.5466
upperback -1.80115 -0.946598 -0.242592
thorax -8.68592 0.165128 7.0089
lowerneck 0.103804 -11.4603 -11.9729
upperneck 9.23496 -16.1014 10.5944
head 4.5721 -7.99137 4.28397
lclavicle 1.80397e-014 2.78299e-015 0
lhumerus -78.1369 -16.5377 104.837
lradius 100.367 -0 0
lwrist 64.2389 0 0
lhand -13.3505 33.0923 0.0514641
lfingers 7.12502 -0 0
lthumb 12.7563 62.7146 0.0526144
rclavicle 1.80397e-014 2.78299e-015 0
rhumerus 66.6506 -8.92529 -29.4784
rradius 78.4305 -0 0
rwrist 35.282 0 0
rhand -42.9433 -35.7245 0.279074
rfingers 7.12502 -0 0
rthumb -15.8063 -65.217 0.268424
1334
root -1.86916 14.3368 9.51836 -4.67569 32.581 3.62313
lfemur 7.61684 -0.224535 -12.413
ltibia 51.9143 -0 0
lfoot -29.2926 33.3319 0.123694
ltoes -13.831 0 0
rfemur -42.8426 -10.0029 -1.00025
rtibia 41.7799 -0 0
rfoot 20.1184 4.12647 -0.529878
rtoes -0.402037 0 0
lowerback 12.1597 0.803817 -12.5083
upperback -1.87408 -0.859483 -0.25738
thorax -8.77367 0.213582 6.9537
lowerneck 0.217283 -11.5262 -12.0257
upperneck 8.99759 -16.1899 10.6731
head 4.50285 -8.0393 4.31952
lclavicle 1.80397e-014 2.78299e-015 0
lhumerus -77.8077 -16.6347 104.806
lradius 100.505 -0 0
lwrist 64.0522 0 0
lhand -13.5533 33.8682 0.0319938
lfingers 7.12502 -0 0
lthumb 12.5607 63.5 0.0335956
rclavicle 1.80397e-014 2.78299e-015 0
rhumerus 66.339 -9.34314 -29.2755
rradius 78.562 -0 0
rwrist 35.111 0 0
rhand -43.0736 -35.3216 0.261879
rfingers 7.12502 -0 0
rthumb -15.9316 -64.7968 0.251902
1335
root -1.88787 14.3137 9.6774 -4.20395 32.6 3.68573
lfemur 7.8231 -0.189814 -12.1522
ltibia 51.4287 -0 0
lfoot -28.9514 33.6938 0.121079
ltoes -13.2289 0 0
rfemur -43.8645 -10.8621 -0.269321
rtibia 43.839 -0 0
rfoot 17.9442 4.3731 -0.508078
rtoes -1.26052 0 0
lowerback 12.1378 0.8695 -12.4637
upperback -1.94871 -0.768808 -0.271891
thorax -8.86418 0.263584 6.89455
lowerneck 0.324884 -11.5874 -12.0744
upperneck 8.7601 -16.2708 10.7489
head 4.43336 -8.08347 4.354
lclavicle 1.80397e-014 2.78299e-015 0
lhumerus -77.3607 -16.7771 104.797
lradius 100.633 -0 0
lwrist 63.8289 0 0
lhand -13.7716 34.6778 0.0135396
lfingers 7.12502 -0 0
lthumb 12.3501 64.3195 0.0155292
rclavicle 1.80397e-014 2.78299e-015 0
rhumerus 65.9633 -9.69055 -29.1028
rradius 78.6982 -0 0
rwrist 34.8186 0 0
rhand -43.1723 -34.9364 0.238539
rfingers 7.12502 -0 0
rthumb -16.0264 -64.3942 0.229448
1336
root -1.90658 14.2907 9.83643 -3.72543 32.5981 3.74907
lfemur 8.01599 -0.145615 -11.9016
ltibia 50.9262 -0 0
lfoot -28.5954 34.0432 0.115552
ltoes -12.6371 0 0
rfemur -44.9211 -11.7143 0.499565
rtibia 45.9403 -0 0
rfoot 15.7374 4.61055 -0.47491
rtoes -2.11318 0 0
lowerback 12.116 0.936536 -12.4134
upperback -2.02413 -0.675513 -0.286258
thorax -8.95597 0.314568 6.83188
lowerneck 0.426672 -11.6443 -12.1188
upperneck 8.52446 -16.3448 10.8212
head 4.36418 -8.12417 4.38714
lclavicle 1.80397e-014 2.78299e-015 0
lhumerus -76.8245 -16.9534 104.804
lradius 100.752 -0 0
lwrist 63.5771 0 0
lhand -13.998 35.5092 -0.00272822
lfingers 7.12502 -0 0
lthumb 12.1317 65.1607 -0.00043915
rclavicle 1.80397e-014 2.78299e-015 0
rhumerus 65.5408 -9.97947 -28.955
rradius 78.8374 -0 0
rwrist 34.4313 0 0
rhand -43.2449 -34.5686 0.210378
rfingers 7.12502 -0 0
rthumb -16.0961 -64.0091 0.202334
1337
root -1.9253 14.2677 9.99546 -3.24466 32.5787 3.81316
lfemur 8.20331 -0.0956463 -11.6623
ltibia 50.4039 -0 0
lfoot -28.2288 34.3776 0.107347
ltoes -12.069 0 0
rfemur -45.9991 -12.5481 1.29389
rtibia 48.052 -0 0
rfoot 13.5301 4.83867 -0.431998
rtoes -2.94768 0 0
lowerback 12.094 1.00422 -12.3582
upperback -2.09941 -0.580541 -0.300612
thorax -9.04759 0.36597 6.76615
lowerneck 0.522714 -11.6971 -12.1588
upperneck 8.29263 -16.4125 10.8896
head 4.29586 -8.16169 4.41864
lclavicle 1.80397e-014 2.78299e-015 0
lhumerus -76.2275 -17.1523 104.82
lradius 100.862 -0 0
lwrist 63.305 0 0
lhand -14.2252 36.3504 -0.0159311
lfingers 7.12502 -0 0
lthumb 11.9126 66.0114 -0.0134501
rclavicle 1.80397e-014 2.78299e-015 0
rhumerus 65.0885 -10.2219 -28.8269
rradius 78.9783 -0 0
rwrist 33.9758 0 0
rhand -43.2972 -34.2182 0.178816
rfingers 7.12502 -0 0
rthumb -16.1461 -63.6417 0.171927
